<svg id="Layer_1" data-name="Layer 1" xmlns="http://www.w3.org/2000/svg" viewBox="0 0 361.87883 79.11774"><defs><style>.cls-1{fill:#1b1464;}</style></defs><path class="cls-1" d="M78.63422,80.61093a2.097,2.097,0,0,0,2.1218-2.116,2.07524,2.07524,0,0,0-2.11193-2.1145,2.11709,2.11709,0,0,0-.00987,4.23054Z" transform="translate(-15.43017 -63.80875)"/><path class="cls-1" d="M46.74987,81.18958a.56217.56217,0,0,1-.83214.12841,6.14178,6.14178,0,0,0-1.03466-.48965A114.678,114.678,0,0,0,27.56388,75.659a27.54747,27.54747,0,0,0-6.45911-.68889,8.00638,8.00638,0,0,0-3.51913.78644,3.83473,3.83473,0,0,0-2.10286,4.13584,7.07011,7.07011,0,0,0,.95164,2.58953,23.05318,23.05318,0,0,0,4.20284,4.94538,99.137,99.137,0,0,0,11.18586,8.83117c1.99342,1.38183,3.98158,2.77339,6.05493,4.03339a1.47233,1.47233,0,0,1,.79355,1.64853,20.5948,20.5948,0,0,0-.02441,2.58125,27.00236,27.00236,0,0,0,.10475,4.1107,38.16327,38.16327,0,0,0,41.96593,34.0792,37.065,37.065,0,0,0,18.91132-7.45332c.79-.59409,1.5649-1.214,2.2989-1.87507a1.32332,1.32332,0,0,1,1.57327-.2688c.1452.0649.3008.10621.45042.16158,4.22231,1.56268,8.50084,2.94888,12.85608,4.0942a49.63551,49.63551,0,0,0,9.12956,1.60834,10.97693,10.97693,0,0,0,4.251-.50122,3.84432,3.84432,0,0,0,2.80576-4.07432,5.73129,5.73129,0,0,0-.72165-2.45714,20.8976,20.8976,0,0,0-4.14648-5.1063,92.29114,92.29114,0,0,0-10.67066-8.55563c-1.09168-.77738-2.2098-1.5175-3.31022-2.28275-.80186-.55766-.80126-.5726-.58631-1.49019.1455-.62125.30559-1.23949.43381-1.86429a38.35315,38.35315,0,0,0-5.30791-28.53808,16.85356,16.85356,0,0,0-1.73384-2.405,2.03606,2.03606,0,0,0-2.61517-.28765,1.97357,1.97357,0,0,0-.5614,2.49226,4.51014,4.51014,0,0,0,.41918.63814,34.94278,34.94278,0,0,1,3.0454,4.97663,34.10222,34.10222,0,0,1,2.52748,23.95531,33.376,33.376,0,0,1-7.2241,13.6806c-.63929.75141-.74368.77291-1.64333.43293-4.599-1.738-9.09816-3.71583-13.60756-5.66953a1.28637,1.28637,0,0,1-.85188-1.246,26.50814,26.50814,0,0,0-.5587-3.9782,36.70629,36.70629,0,0,0-2.6421-7.579,54.856,54.856,0,0,1-2.50283-5.79739,12.37092,12.37092,0,0,1,.47683-9.5886,23.81142,23.81142,0,0,1,2.6216-4.10571c1.19783-1.53418,2.52009-2.96513,3.66133-4.54813,2.147-2.978,2.97384-6.16071,1.80942-9.7562A7.96993,7.96993,0,0,0,86.49323,71.106a10.64756,10.64756,0,0,0-2.09493-1.13845,19.25046,19.25046,0,0,0-8.957-1.65626A36.15486,36.15486,0,0,0,68.55377,69.44c-1.12144.29331-1.12157.26079-1.75252-.71659a10.15338,10.15338,0,0,0-18.83641,4.62468,10.37577,10.37577,0,0,0,.721,4.50046.96916.96916,0,0,1-.07743,1.15109C47.97292,79.71543,47.36341,80.45451,46.74987,81.18958Zm59.95526,47.11332a38.74414,38.74414,0,0,0,4.54328-7.41067c.09568-.20189.17469-.413.28535-.6062.30316-.52923.45832-.58228.9831-.251.64708.40857,1.27609.84686,1.90183,1.288a98.58893,98.58893,0,0,1,10.07966,7.9154,25.28683,25.28683,0,0,1,3.43019,3.72657c.30691.424.82858.89128.53183,1.42676-.26463.47756-.91994.30729-1.41937.34357-.19049.01382-.38282.0022-.80126.0022a33.70921,33.70921,0,0,1-5.91986-.8976,113.31448,113.31448,0,0,1-13.11-3.90582C105.86453,129.462,105.84231,129.39966,106.70513,128.3029ZM38.62089,95.724A116.75,116.75,0,0,1,24.22233,84.95988a21.66368,21.66368,0,0,1-3.967-4.39006c-.63287-1.007-.50242-1.25312.68091-1.30669.38218-.0173.7658-.0027,1.14875-.0027a35.172,35.172,0,0,1,7.263,1.14381A122.36433,122.36433,0,0,1,42.688,84.54014c.24012.08647.476.18466.71432.27606.41069.15751.53825.413.30968.81975-.23441.4171-.44858.8455-.6759,1.26664a37.17777,37.17777,0,0,0-3.25774,8.36491C39.54779,96.15643,39.3898,96.2313,38.62089,95.724ZM85.1321,130.23905a11.92949,11.92949,0,0,0,1.01345-3.08137c.21406-.90536.3036-.96624,1.16383-.59209,2.86575,1.24641,5.73274,2.48937,8.6359,3.647.474.189.95016.373,1.42012.57161.85624.36182.87782.52664.11223,1.12341a32.75187,32.75187,0,0,1-6.1905,3.78452,33.64513,33.64513,0,0,1-15.58348,3.26357c-.2539-.0077-.50776-.03218-.76006-.06208-.04835-.00574-.08932-.07369-.16942-.14456.22534-.31533.60209-.31754.91149-.42952A17.11567,17.11567,0,0,0,85.1321,130.23905Zm-2.76765-4.42892a9.14554,9.14554,0,0,1-2.34161,4.92521,14.374,14.374,0,0,1-9.44952,4.72669,22.63818,22.63818,0,0,1-10.53641-1.29079,19.40849,19.40849,0,0,1-5.59568-3.61577c-6.678-5.50405-10.31541-12.67251-11.63-21.12239-.10776-.69269-.17207-1.39371-.22165-2.09333-.03371-.47586-.00643-.956-.00643-1.43427l-.04207,0c0-.57411-.03012-1.15024.0081-1.72182.04206-.62931.24107-.73924.79332-.42495,1.10883.631,2.19969,1.29378,3.295,1.94847,5.28536,3.15913,10.67776,6.125,16.125,8.99514q9.18719,4.84077,18.615,9.18988C82.53152,124.424,82.54265,124.51331,82.36445,125.81013ZM50.72612,82.59882c.12366-.14564.25978-.28063.38893-.42165a.51812.51812,0,0,1,.76346-.08217c.23447.16578.47343.3253.71256.48439a10.45784,10.45784,0,0,0,4.93937,1.6545,3.11788,3.11788,0,0,0,2.08859-.52533,1.94482,1.94482,0,0,0,.48-2.912,1.57389,1.57389,0,0,0-1.44369-.56013,6.27932,6.27932,0,0,1-6.62056-5.043c-.08349-.40369-.10186-.82083-.1504-1.23174A6.17445,6.17445,0,0,1,56.791,67.90213a6.25989,6.25989,0,0,1,6.912,3.44977c.14928.31736.27049.6478.41141.96923a1.2655,1.2655,0,0,0,1.3569.8376,27.68609,27.68609,0,0,0,3.68892-.5427A53.65863,53.65863,0,0,1,75.46975,71.495a12.23933,12.23933,0,0,1,8.1011,2.00772A3.818,3.818,0,0,1,84.744,74.74243,8.29141,8.29141,0,0,1,85.896,78.457a6.34964,6.34964,0,0,1-1.30333,3.83055,31.33346,31.33346,0,0,1-2.649,3.39185,27.34425,27.34425,0,0,0-4.23052,6.23718,15.74658,15.74658,0,0,0-1.07261,3.36216,18.607,18.607,0,0,0,1.47868,12.21485c.86417,1.77888,1.66006,3.592,2.44857,5.40625a24.79745,24.79745,0,0,1,1.59707,5.207c.02417.12536.0535.25008.07031.37643.12341.92685-.05361,1.08577-.88657.7076-1.39445-.633-2.77484-1.2975-4.15465-1.96224Q66.97252,112.30436,57.0478,106.8062c-4.382-2.42807-8.69551-4.97355-12.96935-7.58664-.95359-.58306-1.00466-.68662-.759-1.7852A34.104,34.104,0,0,1,50.72612,82.59882Z" transform="translate(-15.43017 -63.80875)"/><path class="cls-1" d="M180.4934,120.74388c-2.30726,2.72679-6.29266,4.335-10.69741,4.335-5.38361,0-11.74626-3.63586-11.74626-11.187,0-7.90064,6.36265-10.76731,11.74626-10.76731,4.47474,0,8.46014,1.39839,10.69741,4.12519v-4.68451c0-3.426-2.93656-5.66336-7.4113-5.66336a14.20887,14.20887,0,0,0-9.85834,3.98531l-3.3561-5.943a22.153,22.153,0,0,1,14.75262-5.31371c7.691,0,14.7528,3.07634,14.7528,12.7949v21.81437H180.4934Zm0-8.80969c-1.46818-1.95762-4.265-2.93647-7.13154-2.93647-3.49589,0-6.36265,1.81783-6.36265,5.10394,0,3.14634,2.86676,4.96417,6.36265,4.96417,2.86657,0,5.66336-.97886,7.13154-2.93657Z" transform="translate(-15.43017 -63.80875)"/><path class="cls-1" d="M198.18239,137.10475V90.46947h8.87968v4.265a13.04546,13.04546,0,0,1,10.41766-5.10394c8.66991,0,14.96239,6.43244,14.96239,17.68918s-6.29248,17.75926-14.96239,17.75926a12.90355,12.90355,0,0,1-10.41766-5.174v17.19985Zm16.50075-39.57353a9.94512,9.94512,0,0,0-7.62107,3.84543v11.95593a10.16824,10.16824,0,0,0,7.62107,3.84552c5.10385,0,8.52994-3.9853,8.52994-9.85843C223.21308,101.51653,219.787,97.53122,214.68314,97.53122Z" transform="translate(-15.43017 -63.80875)"/><path class="cls-1" d="M254.815,89.63049a14.027,14.027,0,0,1,11.956,5.73325l-2.517,2.23737a10.76585,10.76585,0,0,0-9.22923-4.68451c-7.90063,0-12.72492,6.29257-12.72492,14.40307s4.82429,14.47295,12.72492,14.47295a10.83478,10.83478,0,0,0,9.22923-4.75439l2.517,2.23737a13.9022,13.9022,0,0,1-11.956,5.80333c-9.92814,0-16.43057-7.90083-16.43057-17.75926S244.8869,89.63049,254.815,89.63049Z" transform="translate(-15.43017 -63.80875)"/><path class="cls-1" d="M274.88071,90.46947h3.63566V96.2727c2.86658-3.77563,6.7122-6.50243,11.39671-6.50243v3.98531a14.7721,14.7721,0,0,0-1.81793-.13978c-3.4259,0-8.0406,3.07634-9.57878,6.01291v24.61105h-3.63566Z" transform="translate(-15.43017 -63.80875)"/><path class="cls-1" d="M318.50849,120.25445a14.70549,14.70549,0,0,1-11.4665,4.82448c-5.80333,0-11.81624-3.9855-11.81624-11.25693,0-7.34131,5.94311-11.117,11.81624-11.117a14.6498,14.6498,0,0,1,11.4665,4.7544v-6.85189c0-4.96416-4.05539-7.76085-9.08944-7.76085a13.137,13.137,0,0,0-10.55745,4.96417l-2.02769-2.44714a16.19413,16.19413,0,0,1,12.93469-5.73325c6.922,0,12.37556,3.28611,12.37556,10.8372v23.77207h-3.63567Zm0-10.0682a12.68109,12.68109,0,0,0-10.20808-4.68441c-5.59337,0-9.22923,3.63566-9.22923,8.39006s3.63586,8.32026,9.22923,8.32026a12.62307,12.62307,0,0,0,10.20808-4.61461Z" transform="translate(-15.43017 -63.80875)"/><path class="cls-1" d="M373.67314,100.60756c0-4.75439-2.0275-7.691-6.782-7.691-3.63567,0-7.76085,2.65691-9.64858,5.73325v25.58991h-3.70565v-23.6322c0-4.75439-1.95771-7.691-6.782-7.691-3.56587,0-7.62107,2.7268-9.64877,5.80314v25.52H333.4705V90.46947h3.63566v5.104c1.39839-2.16748,6.01291-5.943,10.90718-5.943,5.24383,0,8.04061,3.07634,8.87949,6.36246a14.04031,14.04031,0,0,1,11.18694-6.36246c6.22268,0,9.22923,3.49588,9.22923,10.27788v24.33139h-3.63586Z" transform="translate(-15.43017 -63.80875)"/></svg>